<?xml version="1.0" encoding="UTF-8"?>
<svg id="Warstwa_2" data-name="Warstwa 2" xmlns="http://www.w3.org/2000/svg" viewBox="0 0 107.09 73.15">
  <g id="bkg">
    <g>
      <g>
        <path d="m.37,30.61h106.35c.49,0,.49-.76,0-.76H.37c-.49,0-.49.76,0,.76H.37Z" style="fill: #eddabe;"/>
        <path d="m.37,54h106.35c.49,0,.49-.76,0-.76H.37c-.49,0-.49.76,0,.76H.37Z" style="fill: #eddabe;"/>
      </g>
      <g>
        <path d="m10.13,44.11v.68c0,.4.1.71.3.93.2.22.56.33,1.09.33h1.15v4.19H1.61v-4.19c.66,0,1.14-.09,1.42-.26.29-.18.43-.51.43-1v-5.71c0-.5-.14-.84-.43-1.01-.29-.18-.76-.27-1.42-.27v-4.19h12.19c1.11,0,2.05.13,2.8.4.75.26,1.36.63,1.81,1.1.46.47.78,1.04.97,1.71.19.67.29,1.41.29,2.21s-.1,1.53-.29,2.16c-.19.62-.52,1.16-.97,1.6-.46.44-1.06.77-1.81.99-.75.22-1.69.33-2.8.33h-3.67Zm0-2.68h1.22c.63,0,1.07-.17,1.31-.5.24-.33.36-.77.36-1.31,0-.51-.12-.95-.36-1.3-.24-.35-.68-.53-1.31-.53h-1.22v3.64Z" style="fill: #eddabe;"/>
        <path d="m25.93,50.25v-4.19c.66,0,1.14-.09,1.42-.26.29-.18.43-.51.43-1v-5.71c0-.5-.14-.84-.43-1.01-.29-.18-.76-.27-1.42-.27v-4.19h10.36v4.19c-.66,0-1.14.09-1.42.27-.28.18-.42.51-.42,1.01v5.71c0,.49.14.82.42,1,.28.18.75.26,1.42.26v4.19h-10.36Z" style="fill: #eddabe;"/>
        <path d="m53.37,46.52c.31,0,.56-.05.74-.16.18-.11.32-.28.42-.51.09-.23.15-.54.18-.9.02-.37.04-.81.04-1.32h3.95v6.62h-15.92v-3.73l7.86-9.18h-2.26c-.31,0-.56.05-.75.16-.19.11-.33.28-.42.51-.09.23-.15.53-.17.9-.02.37-.03.81-.03,1.32h-3.95v-6.62h15.64v3.73l-7.86,9.18h2.54Z" style="fill: #eddabe;"/>
        <path d="m75.77,46.52c.31,0,.56-.05.74-.16.19-.11.32-.28.42-.51.09-.23.15-.54.18-.9.02-.37.03-.81.03-1.32h3.95v6.62h-15.92v-3.73l7.86-9.18h-2.26c-.31,0-.56.05-.75.16-.19.11-.33.28-.42.51-.09.23-.15.53-.17.9-.02.37-.04.81-.04,1.32h-3.95v-6.62h15.64v3.73l-7.86,9.18h2.54Z" style="fill: #eddabe;"/>
        <path d="m96.57,44.44h-3.57l-.16.49c-.12.32-.11.59.02.81.13.21.42.32.86.32h.64v4.19h-7.04v-4.19h.46c.54,0,.9-.11,1.09-.32.18-.21.36-.53.54-.94l2.31-5.71c.17-.44.19-.76.09-.97-.11-.21-.44-.31-.99-.31h-.24v-4.19h11.61v4.19h-.23c-.56,0-.89.11-1,.33-.11.22-.08.54.1.95l2.32,5.71c.09.21.17.39.24.55.07.16.16.29.26.4.1.11.25.19.42.24.18.05.4.08.68.08h.46v4.19h-10.27v-4.19h.62c.43,0,.72-.11.87-.32.15-.21.16-.48.04-.81l-.16-.49Zm-2.99-1.76h2.41l-1.13-3.47h-.09l-1.19,3.47Z" style="fill: #eddabe;"/>
      </g>
      <g>
        <g>
          <path d="m62.53,15.28c-5.44,3.04-12.15,3-17.59-.09l.69-1.19c5.02,2.85,11.2,2.88,16.21.09l.68,1.19Z" style="fill: #eddabe;"/>
          <path d="m61.68,13.79c-4.91,2.74-10.96,2.7-15.87-.09L53.8,0l7.87,13.79Z" style="fill: #eddabe;"/>
        </g>
        <path d="m54.61,6.01c-.02-.72-.62-1.29-1.34-1.28-.73.02-1.3.62-1.28,1.34.02.72.62,1.3,1.34,1.28s1.3-.62,1.28-1.34Z" style="fill: #eddabe;"/>
        <path d="m58.26,10.64c-.02-.72-.62-1.3-1.34-1.28-.72.02-1.3.62-1.28,1.34.02.72.62,1.3,1.34,1.28.72-.02,1.3-.62,1.28-1.34Z" style="fill: #eddabe;"/>
        <path d="m52.13,12.09c-.02-.72-.62-1.3-1.34-1.28-.72.02-1.3.62-1.28,1.34.02.72.62,1.3,1.34,1.28.72-.02,1.3-.62,1.28-1.34Z" style="fill: #eddabe;"/>
      </g>
      <g>
        <path d="m29.05,26.11v-4.74c0-.08-.02-.14-.06-.19-.04-.04-.11-.08-.21-.11v-.13h1.75v.13c-.1.03-.17.06-.2.11-.04.04-.06.11-.06.19v4.74c0,.09.02.15.06.2.04.04.11.08.2.1v.13h-1.75v-.13c.1-.03.17-.06.21-.11.04-.04.06-.11.06-.19Z" style="fill: #eddabe;"/>
        <path d="m36.67,21.86v4.25c0,.09.02.15.06.19.04.04.11.08.2.11v.13h-1.75v-.13c.1-.03.17-.06.21-.11.04-.04.06-.11.06-.19v-4.25h-1.74c-.08,0-.14.02-.19.06-.04.04-.08.11-.11.21h-.13v-1.45h.13c.03.1.07.17.11.21.04.04.1.06.19.06h4.7c.08,0,.15-.02.19-.06.04-.04.08-.11.11-.21h.13v1.45h-.13c-.03-.1-.06-.17-.11-.21-.04-.04-.11-.06-.19-.06h-1.74Z" style="fill: #eddabe;"/>
        <path d="m45.06,25.11h-2.55l-.38.79c-.05.11-.08.2-.08.26,0,.12.09.2.27.25v.13h-1.85v-.13c.11-.02.19-.06.25-.11.06-.06.12-.16.2-.32l2.06-4.3c.07-.14.1-.25.1-.33,0-.13-.08-.22-.24-.27v-.13h1.99v.13c-.16.05-.24.13-.24.24,0,.08.03.17.08.27l2.13,4.32c.09.18.17.31.24.38.07.07.16.11.27.13v.13h-2.06v-.13c.18-.03.27-.11.27-.25,0-.06-.03-.14-.08-.25l-.39-.79Zm-.35-.77l-.91-2-.92,2h1.83Z" style="fill: #eddabe;"/>
        <path d="m51.46,25.62h3.44c.09,0,.15-.02.19-.06.04-.04.08-.11.11-.21h.13v1.45h-.13c-.03-.1-.06-.17-.11-.21-.04-.04-.11-.06-.19-.06h-4.93v-.13c.1-.03.17-.06.21-.11.04-.04.06-.11.06-.19v-4.74c0-.08-.02-.15-.06-.19-.04-.04-.11-.08-.21-.11v-.13h1.75v.13c-.1.03-.17.06-.21.11-.04.04-.06.11-.06.19v4.25Z" style="fill: #eddabe;"/>
        <path d="m58.37,26.11v-4.74c0-.08-.02-.14-.06-.19-.04-.04-.11-.08-.21-.11v-.13h1.75v.13c-.1.03-.17.06-.21.11-.04.04-.06.11-.06.19v4.74c0,.09.02.15.06.2.04.04.11.08.2.1v.13h-1.75v-.13c.1-.03.17-.06.21-.11.04-.04.06-.11.06-.19Z" style="fill: #eddabe;"/>
        <path d="m67.15,25.11h-2.54l-.38.79c-.05.11-.08.2-.08.26,0,.12.09.2.28.25v.13h-1.85v-.13c.11-.02.19-.06.25-.11.06-.06.12-.16.2-.32l2.06-4.3c.07-.14.1-.25.1-.33,0-.13-.08-.22-.24-.27v-.13h1.99v.13c-.16.05-.24.13-.24.24,0,.08.03.17.08.27l2.13,4.32c.09.18.17.31.24.38.07.07.16.11.27.13v.13h-2.06v-.13c.18-.03.27-.11.27-.25,0-.06-.03-.14-.08-.25l-.38-.79Zm-.35-.77l-.91-2-.92,2h1.83Z" style="fill: #eddabe;"/>
        <path d="m73.45,22.71v3.41c0,.09.02.15.06.19.04.04.11.08.21.11v.13h-1.65v-.13c.1-.03.17-.06.2-.11.04-.04.06-.11.06-.19v-4.74c0-.08-.02-.14-.06-.19-.04-.04-.11-.08-.2-.11v-.13h1.9v.13c-.12.03-.18.09-.18.19,0,.07.04.14.12.22l3.09,3.21v-3.33c0-.08-.02-.14-.06-.19-.04-.04-.11-.08-.21-.11v-.13h1.65v.13c-.1.03-.17.06-.21.11-.04.04-.06.11-.06.19v4.74c0,.09.02.15.06.19.04.04.11.08.21.11v.13h-1.76v-.13c.12-.02.17-.08.17-.18,0-.05-.07-.15-.2-.29l-3.14-3.24Z" style="fill: #eddabe;"/>
      </g>
      <g>
        <path d="m47.6,57.53s.06.09.06.15v.79h-.29c-.1,0-.18-.02-.23-.07-.06-.05-.09-.09-.12-.14-.01-.02-.03-.05-.05-.06-.02-.02-.06-.03-.11-.03h-.5s-.06.01-.08.03c-.02.02-.03.05-.03.08v1.35s0,.07.02.09c.02.01.04.02.08.02h.77s.06.02.08.05c.01.03.02.07.02.11v.45s0,.05-.03.08c-.02.02-.04.03-.06.03h-.79s-.05,0-.07.02c-.02.02-.03.04-.03.08v1.53s0,.08.02.09c.01.02.03.04.05.06.04.03.08.07.11.12.04.05.06.12.06.2v.31h-1.33v-.31c0-.08.02-.15.06-.2.04-.05.08-.09.12-.12.02-.02.04-.04.05-.06.01-.02.02-.05.02-.1v-3.8c0-.07-.03-.12-.09-.15-.05-.02-.09-.06-.11-.11-.03-.05-.04-.13-.04-.24v-.29h2.32s.08.02.12.06Z" style="fill: #eddabe;"/>
        <path d="m52.23,62.26s.08.06.11.12c.04.05.05.12.05.2v.29h-1.33v-.26c0-.08,0-.14.02-.19.02-.04.04-.08.06-.1.02-.03.04-.05.06-.08.02-.03.03-.06.03-.1-.02-.13-.04-.24-.05-.32-.01-.09-.02-.15-.03-.21,0-.05-.02-.09-.04-.11-.02-.02-.04-.03-.08-.03h-.66s-.07,0-.09.01c-.02,0-.03.04-.04.08,0,.02,0,.07-.01.13,0,.06,0,.13-.02.2,0,.08-.02.16-.03.25,0,.05,0,.09.03.12.02.03.03.05.05.08.02.03.03.06.05.1.02.04.03.1.03.17v.26h-1.31v-.29c0-.07.01-.13.04-.17.02-.04.05-.08.08-.1.03-.03.06-.06.09-.09.03-.03.05-.07.07-.11l.4-1.9c.05-.23.1-.47.15-.7.05-.23.09-.43.13-.61.04-.18.07-.33.09-.44.02-.11.04-.17.04-.18v-.04s-.01-.07-.03-.09c-.02-.02-.05-.05-.07-.08-.03-.03-.05-.07-.07-.12-.02-.05-.03-.12-.03-.22v-.26c.25,0,.46,0,.62,0,.16,0,.29,0,.39.03.1.02.17.05.21.1s.08.11.1.21c0,.02.02.09.05.23.03.13.06.3.1.5.04.2.09.43.14.69.05.26.11.52.16.78.12.62.27,1.32.43,2.1,0,.04.02.07.04.09.02.02.04.04.06.06Zm-1.25-1.48c.06,0,.09-.03.08-.08l-.17-.99c-.02-.12-.05-.25-.06-.37-.02-.12-.04-.23-.05-.32-.02-.1-.03-.17-.04-.23,0-.06-.01-.09-.01-.1h-.01s0,.05-.02.15c-.01.09-.03.21-.06.36-.02.14-.05.3-.08.47-.03.17-.06.33-.08.48-.03.15-.05.28-.06.38-.02.11-.03.17-.03.18,0,.03,0,.05.01.06.01,0,.04.01.1.01h.5Z" style="fill: #eddabe;"/>
        <path d="m55.32,59.09c0,.1.04.18.13.26.08.08.19.16.31.24s.26.16.41.25c.15.09.29.18.41.3.12.11.23.24.31.38s.13.31.13.5v.83c0,.18-.04.34-.11.48-.07.14-.17.25-.29.34-.12.09-.26.16-.42.2-.16.04-.33.06-.5.06s-.35-.02-.5-.06c-.16-.04-.3-.11-.41-.2-.12-.09-.21-.2-.28-.34-.07-.14-.1-.3-.1-.48v-.69h.45c.13,0,.23.04.29.12.06.08.1.17.1.28v.36c0,.08.05.14.14.2.09.06.2.09.33.09.06,0,.12,0,.18-.03.06-.02.11-.05.15-.08.04-.03.08-.06.1-.1.02-.04.04-.07.04-.1v-.78c0-.16-.04-.29-.13-.39-.08-.1-.19-.19-.32-.27-.13-.08-.26-.15-.41-.23-.15-.07-.28-.16-.41-.26-.13-.1-.23-.23-.32-.37-.08-.15-.13-.33-.13-.56v-.53c0-.19.04-.36.1-.5.06-.14.15-.25.26-.34.11-.09.24-.15.39-.19.15-.04.31-.06.49-.06s.34.02.49.07c.15.05.28.11.4.2.11.09.2.2.26.34.06.14.09.3.09.48v.68h-.42c-.12,0-.22-.05-.3-.15-.08-.1-.12-.2-.12-.32v-.22c0-.1-.04-.18-.13-.23-.09-.06-.18-.08-.27-.08-.1,0-.19.03-.26.09-.08.06-.11.12-.11.19v.63Z" style="fill: #eddabe;"/>
        <path d="m61.86,57.55c.05.05.08.13.08.26v.67h-.32c-.14,0-.24-.07-.31-.2-.02-.05-.05-.08-.09-.09-.03,0-.06-.01-.09-.01h-.14s-.05.01-.08.03c-.02.02-.03.05-.03.09v3.78s.01.08.03.1c.01.02.03.04.05.05.04.03.08.07.11.12.04.05.05.12.05.2v.31h-1.33v-.31c0-.08.02-.15.06-.2.04-.05.08-.09.11-.12.02-.01.04-.03.05-.05.01-.02.02-.05.02-.1v-3.79s-.01-.07-.04-.08c-.02-.02-.05-.03-.07-.03h-.12s-.05,0-.09.03c-.04.02-.07.04-.09.08-.03.07-.06.12-.08.15-.03.03-.1.05-.22.05h-.33v-.68c0-.11.02-.19.05-.25.04-.06.12-.08.24-.08h2.3c.12,0,.2.03.25.07Z" style="fill: #eddabe;"/>
      </g>
      <g>
        <path d="m87.48,60.94c-23.53,6.35-44.34,6.35-67.87,0,1.12,1.92,1.71,2.88,2.95,4.77-2.05.96-3.1,1.42-5.24,2.28,24.93,6.88,47.52,6.88,72.45,0-2.14-.86-3.19-1.32-5.24-2.28,1.24-1.89,1.83-2.85,2.95-4.77Z" style="fill: #eddabe;"/>
        <g>
          <path d="m28.11,68.18c.3-1.32.45-1.97.75-3.29.01-.06,0-.11-.01-.14-.02-.04-.06-.07-.13-.11,0-.04.01-.05.02-.09.9.2,1.35.3,2.25.49.49.1.86.23,1.1.39.35.23.58.55.7.95.09.31.1.66.03,1.05-.13.68-.44,1.15-.95,1.42-.21.11-.45.18-.72.19-.26.01-.59-.02-.97-.1-.93-.19-1.4-.3-2.33-.51,0-.04.01-.05.02-.09.08,0,.13-.02.17-.04.04-.02.06-.06.07-.12Zm.98-.14c.46.1.68.15,1.14.24.36.08.65.09.85.03.43-.12.7-.48.82-1.06.08-.42.04-.77-.12-1.03-.09-.15-.21-.26-.36-.35-.15-.08-.36-.15-.63-.21-.45-.09-.67-.14-1.11-.24-.23,1.04-.34,1.57-.57,2.61Z" style="fill: #eddabe;"/>
          <path d="m36.76,68.34c-.07.43-.1.65-.16,1.08,1.08.16,1.62.24,2.7.37.06,0,.11,0,.15-.02.04-.02.07-.07.1-.14.04,0,.06,0,.1.01-.05.41-.08.61-.12,1.02-.04,0-.06,0-.1-.01-.01-.07-.03-.12-.06-.16-.03-.03-.08-.05-.14-.06-1.53-.19-2.3-.3-3.83-.54,0-.04,0-.06.02-.09.08,0,.13-.02.17-.05.03-.03.06-.07.06-.13.21-1.33.32-2,.53-3.33,0-.06,0-.11-.02-.14-.02-.04-.07-.07-.14-.1,0-.04,0-.06.02-.09,1.45.23,2.17.34,3.63.52.06,0,.11,0,.14-.02.04-.02.07-.07.1-.14.04,0,.06,0,.09.01-.05.41-.08.62-.13,1.02-.04,0-.06,0-.1-.01-.01-.07-.03-.12-.06-.15-.03-.03-.07-.05-.13-.06-1.03-.13-1.54-.2-2.56-.35-.06.38-.09.56-.14.93.67.1,1.01.15,1.68.24.06,0,.11,0,.14-.02.04-.02.07-.07.1-.13.04,0,.06,0,.1.01-.05.4-.08.6-.13,1-.04,0-.06,0-.1-.01-.01-.07-.03-.12-.06-.16-.03-.03-.07-.05-.13-.06-.67-.09-1.01-.14-1.69-.24Z" style="fill: #eddabe;"/>
          <path d="m43.65,70.26c1.04.09,1.55.13,2.59.2.06,0,.11,0,.15-.03.03-.03.06-.07.09-.14.04,0,.06,0,.1,0-.03.41-.04.62-.06,1.03-.04,0-.06,0-.1,0-.02-.07-.04-.12-.07-.15-.03-.03-.08-.05-.14-.05-1.49-.1-2.24-.16-3.73-.3,0-.04,0-.05,0-.09.08-.01.13-.03.16-.06.03-.03.05-.07.06-.13.13-1.34.19-2.01.32-3.36,0-.06,0-.11-.03-.14-.02-.03-.07-.06-.14-.09,0-.04,0-.05,0-.09.51.05.77.07,1.28.12,0,.04,0,.06,0,.09-.07.01-.13.03-.16.06-.03.03-.05.07-.05.13-.1,1.2-.16,1.81-.26,3.01Z" style="fill: #eddabe;"/>
          <path d="m49.47,70.96c.05-1.35.07-2.03.12-3.38,0-.06-.01-.1-.04-.13-.03-.03-.08-.06-.15-.08,0-.04,0-.06,0-.09.51.02.77.03,1.28.04,0,.04,0,.05,0,.09-.07.02-.12.04-.15.07-.03.03-.04.07-.05.13-.04,1.35-.06,2.03-.09,3.38,0,.06.01.11.04.14.03.03.08.06.15.08,0,.04,0,.05,0,.09-.53-.02-.79-.02-1.32-.04,0-.04,0-.06,0-.1.07-.02.13-.04.16-.07.03-.03.05-.08.05-.14Z" style="fill: #eddabe;"/>
          <path d="m55.72,70.17c.43-.94.64-1.42,1.05-2.37.04-.1.07-.18.06-.23,0-.08-.07-.13-.2-.16,0-.04,0-.06,0-.09.56-.01.84-.02,1.4-.05,0,.04,0,.06,0,.09-.09.02-.15.04-.18.08-.03.04-.09.14-.16.33-.53,1.21-.8,1.82-1.36,3.03-.06.13-.09.21-.09.25,0,.1.07.15.2.17,0,.04,0,.06,0,.1-.58.01-.88.02-1.46.03,0-.04,0-.06,0-.09.13-.02.19-.08.19-.18,0-.04-.03-.12-.1-.24-.6-1.19-.89-1.78-1.47-2.98-.08-.18-.14-.28-.18-.32-.03-.04-.1-.06-.18-.07v-.09c.58,0,.87,0,1.46,0,0,.04,0,.05,0,.09-.13.03-.2.08-.2.17,0,.05.02.13.07.23.45.93.67,1.4,1.14,2.33Z" style="fill: #eddabe;"/>
          <path d="m61.84,69.3c.03.44.05.65.08,1.09,1.08-.08,1.63-.12,2.71-.23.06,0,.11-.02.14-.05.03-.03.05-.08.07-.15.04,0,.06,0,.1-.01.04.41.06.62.1,1.03-.04,0-.06,0-.1.01-.03-.07-.06-.12-.1-.14-.04-.02-.08-.03-.14-.03-1.54.15-2.31.21-3.85.31,0-.04,0-.06,0-.09.07-.02.12-.05.15-.09.03-.03.04-.08.04-.14-.09-1.35-.13-2.02-.22-3.37,0-.06-.02-.11-.05-.14-.03-.03-.08-.05-.15-.06,0-.04,0-.06,0-.09,1.46-.09,2.19-.15,3.64-.29.06,0,.11-.02.13-.05.03-.03.05-.08.06-.15.04,0,.06,0,.09-.01.04.41.06.62.1,1.03-.04,0-.06,0-.1,0-.03-.07-.06-.11-.09-.13-.04-.02-.08-.03-.14-.03-1.03.1-1.54.14-2.57.22.03.38.04.57.07.94.68-.05,1.01-.08,1.69-.14.06,0,.11-.02.14-.05.03-.03.05-.08.07-.15.04,0,.06,0,.1-.01.04.4.06.6.09,1.01-.04,0-.06,0-.1,0-.03-.07-.06-.11-.09-.14-.04-.02-.08-.03-.14-.03-.68.06-1.02.09-1.7.13Z" style="fill: #eddabe;"/>
          <path d="m68.86,68.7c.07.53.11.79.18,1.31,0,.06.03.1.06.13.03.03.09.04.16.05,0,.04,0,.06.01.09-.53.07-.79.11-1.32.17,0-.04,0-.06-.01-.09.07-.03.12-.06.15-.09.02-.04.04-.08.03-.14-.17-1.34-.26-2.01-.43-3.35,0-.06-.03-.1-.06-.13-.03-.03-.08-.05-.16-.06,0-.04,0-.05-.01-.09,1.02-.13,1.53-.2,2.55-.35.31-.05.56-.07.75-.06.19,0,.36.04.5.11.17.08.31.19.42.35.1.15.16.32.2.51.11.64-.21,1.08-.94,1.31.39.39.58.58.98.96.17.17.3.27.37.32.08.04.16.06.26.05,0,.04,0,.06.01.09-.61.1-.91.15-1.52.24,0-.04,0-.06-.01-.09.1-.03.15-.07.14-.13,0-.04-.07-.11-.18-.23-.41-.41-.61-.62-1.02-1.04-.44.06-.67.09-1.11.15Zm-.09-.65c.56-.08.84-.12,1.39-.2.21-.03.35-.06.43-.08.08-.02.16-.06.22-.11.14-.1.2-.26.16-.46-.03-.21-.13-.34-.29-.39-.08-.03-.16-.04-.24-.04-.08,0-.23.02-.44.05-.55.08-.83.12-1.38.2.06.42.08.62.14,1.04Z" style="fill: #eddabe;"/>
          <path d="m77.18,67.21c.11.54.17.8.28,1.33.01.06.04.1.07.12.04.03.09.04.17.04,0,.04.01.06.02.09-.52.11-.79.17-1.31.27,0-.04-.01-.06-.02-.09.07-.03.12-.07.14-.11.02-.04.03-.08.02-.15-.11-.53-.16-.8-.27-1.33-.68-.6-1.01-.91-1.67-1.52-.14-.13-.25-.22-.32-.26-.08-.04-.16-.06-.25-.05,0-.04-.01-.05-.02-.09.64-.12.96-.18,1.6-.31,0,.04.01.06.02.09-.13.05-.18.12-.16.21,0,.04.06.1.17.2.38.36.57.54.95.9.22-.48.32-.72.53-1.2.06-.13.08-.22.07-.26,0-.04-.03-.08-.08-.1-.04-.02-.1-.03-.16-.03,0-.04-.01-.05-.02-.09.62-.13.94-.2,1.56-.35,0,.04.01.06.02.09-.09.03-.15.08-.21.15-.05.07-.12.18-.2.36-.36.82-.55,1.24-.93,2.06Z" style="fill: #eddabe;"/>
        </g>
      </g>
    </g>
  </g>
</svg>